# xmcd
# 
# Track frame offsets:
#     150
#     12255
#     24503
# 
# Disc length: 658
# 
# Revision: 0
# Processed by: cddbd v1.5.2PL0 Copyright (c) Steve Scherf et al.
# Submitted via: BonkEnc v1.0.15
# 
DISCID=17029003
DTITLE=Nancy and Frank Sinatra - Something Stupid - The Original Remastered
DYEAR=0
DGENRE=
TTITLE0=Something Stupid
TTITLE1=Life's A Trippy Thing
TTITLE2=Nights In White Satin
EXTD=
EXTT0=
EXTT1=
EXTT2=
PLAYORDER=
